Coordinates
version=1
nRows=17
nColumns=24
inDegrees=yes

Units are S.I. units (second, meters, Newtons, ...)
Angles are in degrees.

endheader
time	pelvis_tilt	pelvis_list	pelvis_rotation	pelvis_tx	pelvis_ty	pelvis_tz	hip_flexion_r	hip_adduction_r	hip_rotation_r	knee_angle_r	ankle_angle_r	subtalar_angle_r	mtp_angle_r	hip_flexion_l	hip_adduction_l	hip_rotation_l	knee_angle_l	ankle_angle_l	subtalar_angle_l	mtp_angle_l	lumbar_extension	lumbar_bending	lumbar_rotation
      3.13500000	     -0.68301566	      3.78326771	      2.26726120	     -1.50350770	      0.91517448	      0.19175473	     30.33785107	     -1.58971829	     -2.93602734	    -14.94800982	     10.83298887	     -4.36990226	      0.00000000	    -13.50021086	      8.79790964	      7.28496269	    -17.60900219	     24.93489626	     -8.32658109	      0.00000000	    -11.98661623	     -3.15494420	    -16.36849811
      3.14000000	     -0.63227892	      3.50976060	      2.30137463	     -1.49573201	      0.91442367	      0.19217593	     30.28333827	     -1.19394847	     -2.54874382	    -15.72582915	     10.13933550	     -5.09159543	      0.00000000	    -13.48625263	      8.40062579	      6.72680941	    -18.65845890	     24.92726535	     -7.55202580	      0.00000000	    -11.95733018	     -2.77961141	    -16.40639825
      3.14500000	     -0.68462373	      3.24599047	      2.17071676	     -1.48802819	      0.91356389	      0.19294278	     30.37626303	     -0.69862604	     -1.90585780	    -16.52659928	      9.25831159	     -5.93380660	      0.00000000	    -13.27247348	      8.01348356	      5.78485714	    -19.83007963	     24.90574895	     -6.55942924	      0.00000000	    -11.81419368	     -2.46819698	    -16.21013761
      3.15000000	     -0.75462908	      2.92978328	      2.06626227	     -1.48034347	      0.91281982	      0.19370979	     30.47831300	     -0.16113822	     -1.31354995	    -17.31198688	      8.31533669	     -6.74850869	      0.00000000	    -12.98419094	      7.54965463	      4.87616101	    -21.09381654	     24.78969044	     -5.57038083	      0.00000000	    -11.65407474	     -2.09148478	    -16.03465961
      3.15500000	     -0.82929793	      2.59163553	      1.91926794	     -1.47269631	      0.91214697	      0.19457410	     30.60331080	      0.42639968	     -0.67828728	    -18.12425517	      7.37414044	     -7.53693393	      0.00000000	    -12.62993025	      7.04707180	      3.88226165	    -22.45004817	     24.58131765	     -4.56162932	      0.00000000	    -11.49648391	     -1.70013259	    -15.78446741
      3.16000000	     -0.93038866	      2.19968205	      1.74972011	     -1.46503467	      0.91156467	      0.19546982	     30.76062414	      1.07399063	     -0.09320402	    -18.94544777	      6.41544385	     -8.25909523	      0.00000000	    -12.20156020	      6.47638627	      2.89977827	    -23.88213900	     24.26200834	     -3.56432316	      0.00000000	    -11.30314903	     -1.24268933	    -15.51566657
      3.16500000	     -1.03877183	      1.79109355	      1.55749165	     -1.45738894	      0.91106375	      0.19641900	     30.93738708	      1.75226733	      0.48978569	    -19.79684028	      5.48772654	     -8.95498557	      0.00000000	    -11.71342940	      5.87060965	      1.91036381	    -25.39699277	     23.81240638	     -2.58096505	      0.00000000	    -11.10709261	     -0.77196240	    -15.21940455
      3.17000000	     -1.14754435	      1.39725904	      1.34315731	     -1.44979292	      0.91065179	      0.19744713	     31.11589704	      2.44051719	      1.13473544	    -20.66017604	      4.56203594	     -9.70984026	      0.00000000	    -11.17361761	      5.26093850	      0.94286808	    -26.98989230	     23.20996647	     -1.61953004	      0.00000000	    -10.92198347	     -0.32856235	    -14.93171661
      3.17500000	     -1.26735198	      0.94010133	      1.13333026	     -1.44207964	      0.91026873	      0.19838260	     31.30369972	      3.16096906	      1.59721055	    -21.54629459	      3.80844115	    -10.29391348	      0.00000000	    -10.58310549	      4.57936608	      0.04605321	    -28.66189008	     22.49309298	     -0.74385376	      0.00000000	    -10.70409411	      0.21092059	    -14.58898952
      3.18000000	     -1.38563971	      0.51161471	      0.92250215	     -1.43441626	      0.90993617	      0.19939904	     31.48299052	      3.87089027	      2.13231087	    -22.43791424	      3.08061451	    -10.97572946	      0.00000000	     -9.94027606	      3.89805342	     -0.83151648	    -30.40983375	     21.63610483	      0.10584194	      0.00000000	    -10.50154107	      0.69957619	    -14.26523995
      3.18500000	     -1.49051086	      0.09484380	      0.70532756	     -1.42673129	      0.90966826	      0.20037930	     31.62399520	      4.56056142	      2.60998496	    -23.30156925	      2.46513190	    -11.62062538	      0.00000000	     -9.27225039	      3.22578731	     -1.62255471	    -32.21549291	     20.61286516	      0.86231103	      0.00000000	    -10.31373262	      1.18310566	    -13.94962207
      3.19000000	     -1.59291822	     -0.29352582	      0.49458063	     -1.41906235	      0.90944871	      0.20143080	     31.72806986	      5.22912216	      3.11194073	    -24.12078201	      1.92664540	    -12.32009872	      0.00000000	     -8.56184239	      2.56335754	     -2.34394883	    -34.07472740	     19.43274677	      1.54561398	      0.00000000	    -10.13250495	      1.61675412	    -13.64989189
      3.19500000	     -1.67676718	     -0.69858148	      0.29128013	     -1.41138245	      0.90925993	      0.20243142	     31.78994898	      5.88402922	      3.47143116	    -24.91175023	      1.58034836	    -12.87402177	      0.00000000	     -7.82793373	      1.87598689	     -2.99437380	    -35.99112422	     18.15940528	      2.15234615	      0.00000000	     -9.97499666	      2.07991096	    -13.35200820
      3.20000000	     -1.74851320	     -1.11555318	      0.09010981	     -1.40370716	      0.90911309	      0.20341883	     31.80272085	      6.53534549	      3.76345022	    -25.65033864	      1.38569399	    -13.33905536	      0.00000000	     -7.07027643	      1.17670101	     -3.56045867	    -37.94124657	     16.77919110	      2.62711871	      0.00000000	     -9.83499567	      2.55434692	    -13.03665939
      3.20500000	     -1.82410833	     -1.49050822	     -0.11443478	     -1.39609519	      0.90899821	      0.20446702	     31.77342551	      7.15259729	      4.06204891	    -26.31158072	      1.30315950	    -13.83866057	      0.00000000	     -6.26406972	      0.50889725	     -4.07753823	    -39.92130001	     15.28973730	      3.03137846	      0.00000000	     -9.70055942	      2.97277032	    -12.76746516
      3.21000000	     -1.87385031	     -1.88956345	     -0.31794333	     -1.38854440	      0.90895338	      0.20544192	     31.68233909	      7.76683668	      4.26549212	    -26.91658955	      1.40042149	    -14.15012677	      0.00000000	     -5.45161080	     -0.16426196	     -4.49179729	    -41.91306092	     13.74049440	      3.26078059	      0.00000000	     -9.61379907	      3.43001773	    -12.46358470
      3.21500000	     -1.95731188	     -2.26805975	     -0.52419890	     -1.38103143	      0.90889057	      0.20656988	     31.58200184	      8.37755677	      4.47872630	    -27.44897143	      1.59690585	    -14.49867879	      0.00000000	     -4.56466720	     -0.84153172	     -4.89482431	    -43.91908064	     12.15793492	      3.42476475	      0.00000000	     -9.48415177	      3.82820909	    -12.19131844
